<svg width="283" height="50" viewBox="0 0 283 50" fill="none" xmlns="http://www.w3.org/2000/svg">
<g clip-path="url(#clip0_5174_3405)">
<path d="M282.766 18.1661C282.611 17.7683 282.382 17.4266 282.093 17.1308C281.804 16.8401 281.46 16.6208 281.076 16.4576C280.687 16.2995 280.263 16.2179 279.795 16.2179C279.326 16.2179 278.907 16.2995 278.514 16.4576C278.125 16.6208 277.786 16.8452 277.492 17.1308C277.203 17.4266 276.978 17.7632 276.824 18.1661C276.664 18.5588 276.579 18.9922 276.579 19.4563C276.579 19.9204 276.659 20.3437 276.824 20.7466C276.978 21.1444 277.203 21.4861 277.492 21.7717C277.786 22.0675 278.125 22.2868 278.514 22.4551C278.902 22.6132 279.336 22.6948 279.795 22.6948C280.253 22.6948 280.682 22.6132 281.076 22.4551C281.46 22.2919 281.804 22.0675 282.093 21.7717C282.382 21.481 282.611 21.1444 282.766 20.7466C282.92 20.3488 283 19.9204 283 19.4563C283 18.9922 282.92 18.5588 282.766 18.1661ZM282.133 20.8741C281.903 21.2923 281.579 21.6238 281.176 21.8635C280.772 22.1032 280.313 22.2307 279.795 22.2307C279.276 22.2307 278.818 22.1083 278.409 21.8635C278.005 21.6238 277.686 21.2923 277.452 20.8741C277.217 20.4559 277.103 19.9867 277.103 19.4563C277.103 18.9259 277.217 18.4415 277.452 18.0284C277.686 17.6153 278.005 17.2838 278.409 17.0441C278.818 16.8044 279.276 16.6769 279.795 16.6769C280.313 16.6769 280.772 16.7993 281.176 17.0441C281.579 17.2838 281.903 17.6153 282.133 18.0284C282.367 18.4415 282.482 18.9157 282.482 19.4563C282.482 19.9969 282.367 20.4559 282.133 20.8741Z" fill="#006944"/>
<path d="M281.056 19.4665C281.29 19.2574 281.415 18.982 281.415 18.6455C281.415 18.3089 281.295 18.0335 281.056 17.8193C280.822 17.6051 280.512 17.5031 280.129 17.5031H278.419V21.3892H278.922V19.7827H279.57L280.777 21.3892H281.425L280.164 19.7827C280.527 19.7776 280.832 19.6654 281.061 19.4665H281.056ZM278.922 19.3645V17.9315H280.094C280.343 17.9315 280.537 18.0029 280.677 18.1253C280.817 18.2579 280.891 18.4262 280.891 18.6506C280.891 18.8749 280.817 19.0381 280.677 19.1656C280.537 19.3033 280.338 19.3645 280.094 19.3645H278.922Z" fill="#006944"/>
<path d="M212.822 16.2179V48.5873H242.911V42.1155H220.733V35.6589H238.898V29.1871H220.733V22.6897H242.911V16.2179H212.822Z" fill="#006944"/>
<path d="M259.875 22.0471C264.067 22.0471 267.666 24.6583 269.197 28.3711H276.824C275.039 20.614 268.23 14.8409 260.099 14.8409C250.613 14.8409 242.916 22.7101 242.916 32.4204C242.916 42.1308 250.608 49.9949 260.099 49.9949C268.225 49.9949 275.034 44.2217 276.824 36.4647H269.177C267.636 40.1622 264.047 42.753 259.87 42.753C254.277 42.753 249.75 38.1171 249.75 32.4C249.75 26.683 254.282 22.0471 259.87 22.0471H259.875Z" fill="#006944"/>
<path d="M36.1956 48.3476V16.2179H20.5479L0 48.5924H8.49932L14.6757 38.8668H28.2895V48.5924H44.5504L64.3406 17.4215V48.5924H72.2517V16.2179H56.604L36.2006 48.3527L36.1956 48.3476ZM28.2845 32.3898H18.7783L28.2845 17.4215V32.3898Z" fill="#006944"/>
<path d="M96.5533 48.5924H105.053L111.229 38.8668H124.843V48.5924H132.754V16.2179H117.106L96.5583 48.5924H96.5533ZM124.838 32.3898H115.332L124.838 17.4215V32.3898Z" fill="#006944"/>
<path d="M164.887 16.1975H156.383L146.104 32.3949H154.603L164.368 17.0135V48.5873H172.28V16.2128H164.872L164.887 16.1975Z" fill="#006944"/>
<path d="M145.012 16.2128H137.101V48.5873H144.324H152.823L163.102 32.3949H154.603L145.012 47.501V16.2128Z" fill="#006944"/>
<path d="M158.167 0L147.883 16.1975H156.382L166.666 0H158.167Z" fill="#006944"/>
<path d="M201.511 16.2179H193.012L172.459 48.5873H180.958L200.748 17.4164V48.5873H208.66V16.2179H201.511Z" fill="#006944"/>
<path d="M107.077 16.2179H75.4371V22.6897H86.6333V48.5873H94.5444V22.6897H107.077V16.2179Z" fill="#006944"/>
</g>
<defs>
<clipPath id="clip0_5174_3405">
<rect width="283" height="50" fill="white"/>
</clipPath>
</defs>
</svg>
