<svg width="1920" height="323" viewBox="0 0 1920 323" fill="none" xmlns="http://www.w3.org/2000/svg">
<g clip-path="url(#clip0_5105_1768)">
<path d="M1918.41 120.622C1917.36 117.981 1915.81 115.712 1913.84 113.748C1911.88 111.818 1909.55 110.362 1906.95 109.278C1904.31 108.228 1901.43 107.687 1898.25 107.687C1895.07 107.687 1892.23 108.228 1889.56 109.278C1886.92 110.362 1884.62 111.852 1882.63 113.748C1880.67 115.712 1879.15 117.947 1878.1 120.622C1877.01 123.23 1876.44 126.108 1876.44 129.19C1876.44 132.272 1876.98 135.082 1878.1 137.758C1879.15 140.399 1880.67 142.668 1882.63 144.564C1884.62 146.528 1886.92 147.984 1889.56 149.102C1892.2 150.152 1895.14 150.693 1898.25 150.693C1901.37 150.693 1904.27 150.152 1906.95 149.102C1909.55 148.018 1911.88 146.528 1913.84 144.564C1915.81 142.634 1917.36 140.399 1918.41 137.758C1919.46 135.116 1920 132.272 1920 129.19C1920 126.108 1919.46 123.23 1918.41 120.622ZM1914.12 138.604C1912.56 141.381 1910.36 143.582 1907.62 145.174C1904.88 146.765 1901.77 147.612 1898.25 147.612C1894.74 147.612 1891.62 146.799 1888.85 145.174C1886.11 143.582 1883.95 141.381 1882.36 138.604C1880.77 135.827 1879.99 132.712 1879.99 129.19C1879.99 125.668 1880.77 122.451 1882.36 119.708C1883.95 116.965 1886.11 114.764 1888.85 113.172C1891.62 111.581 1894.74 110.734 1898.25 110.734C1901.77 110.734 1904.88 111.547 1907.62 113.172C1910.36 114.764 1912.56 116.965 1914.12 119.708C1915.7 122.451 1916.48 125.6 1916.48 129.19C1916.48 132.78 1915.7 135.827 1914.12 138.604Z" fill="#006944"/>
<path d="M1906.81 129.258C1908.4 127.869 1909.25 126.041 1909.25 123.806C1909.25 121.571 1908.43 119.742 1906.81 118.32C1905.22 116.897 1903.12 116.22 1900.52 116.22H1888.92V142.024H1892.34V131.357H1896.73L1904.92 142.024H1909.31L1900.76 131.357C1903.23 131.323 1905.29 130.578 1906.84 129.258H1906.81ZM1892.34 128.58V119.065H1900.28C1901.97 119.065 1903.29 119.539 1904.24 120.352C1905.19 121.232 1905.69 122.35 1905.69 123.84C1905.69 125.33 1905.19 126.413 1904.24 127.26C1903.29 128.174 1901.94 128.58 1900.28 128.58H1892.34Z" fill="#006944"/>
<path d="M1443.88 107.687V322.62H1648.02V279.647H1497.55V236.775H1620.79V193.802H1497.55V150.66H1648.02V107.687H1443.88Z" fill="#006944"/>
<path d="M1763.11 146.393C1791.55 146.393 1815.97 163.731 1826.35 188.384H1878.1C1865.99 136.877 1819.79 98.5435 1764.63 98.5435C1700.27 98.5435 1648.05 150.795 1648.05 215.272C1648.05 279.748 1700.24 331.966 1764.63 331.966C1819.76 331.966 1865.96 293.632 1878.1 242.126H1826.22C1815.77 266.677 1791.42 283.88 1763.07 283.88C1725.13 283.88 1694.42 253.098 1694.42 215.136C1694.42 177.175 1725.16 146.393 1763.07 146.393H1763.11Z" fill="#006944"/>
<path d="M245.568 321.028V107.687H139.406L0 322.653H57.6632L99.5663 258.075H191.929V322.653H302.25L436.516 115.678V322.653H490.188V107.687H384.027L245.601 321.062L245.568 321.028ZM191.895 215.068H127.4L191.895 115.678V215.068Z" fill="#006944"/>
<path d="M655.061 322.653H712.724L754.628 258.075H846.99V322.653H900.663V107.687H794.501L655.095 322.653H655.061ZM846.956 215.068H782.461L846.956 115.678V215.068Z" fill="#006944"/>
<path d="M1118.67 107.551H1060.97L991.233 215.102H1048.9L1115.15 112.969V322.62H1168.82V107.653H1118.57L1118.67 107.551Z" fill="#006944"/>
<path d="M983.826 107.653H930.154V322.62H979.159H1036.82L1106.56 215.102H1048.9L983.826 315.407V107.653Z" fill="#006944"/>
<path d="M1073.08 0L1003.31 107.551H1060.97L1130.74 0H1073.08Z" fill="#006944"/>
<path d="M1367.14 107.687H1309.48L1170.04 322.62H1227.7L1361.97 115.645V322.62H1415.64V107.687H1367.14Z" fill="#006944"/>
<path d="M726.455 107.687H511.799V150.66H587.759V322.62H641.432V150.66H726.455V107.687Z" fill="#006944"/>
</g>
<defs>
<clipPath id="clip0_5105_1768">
<rect width="1920" height="332" fill="white"/>
</clipPath>
</defs>
</svg>
